<?xml version="1.0" standalone="no"?>
<!DOCTYPE svg PUBLIC "-//W3C//DTD SVG 20010904//EN"
 "http://www.w3.org/TR/2001/REC-SVG-20010904/DTD/svg10.dtd">
<svg version="1.0" xmlns="http://www.w3.org/2000/svg"
 width="928.000000pt" height="190.000000pt" viewBox="0 0 928.000000 190.000000"
 preserveAspectRatio="xMidYMid meet">

<g transform="translate(0.000000,190.000000) scale(0.100000,-0.100000)"
fill="#000000" stroke="none">
<path d="M4100 1605 c-114 -32 -170 -98 -192 -222 -22 -131 18 -260 99 -316
122 -84 377 -73 476 21 60 56 72 95 72 227 0 104 -3 125 -22 160 -52 96 -131
137 -278 142 -68 2 -117 -2 -155 -12z m220 -117 c65 -33 85 -74 85 -173 0 -99
-20 -139 -85 -173 -37 -19 -56 -23 -104 -19 -120 10 -174 100 -152 251 17 114
144 170 256 114z"/>
<path d="M243 1603 c-8 -3 -13 -23 -13 -48 0 -58 15 -65 129 -65 l91 0 0 -223
c0 -160 3 -226 12 -235 7 -7 38 -12 70 -12 46 0 59 4 68 19 6 12 10 106 10
235 l0 216 94 0 c73 0 98 4 110 16 18 18 21 56 6 85 -10 18 -24 19 -288 18
-152 0 -283 -3 -289 -6z"/>
<path d="M1112 1598 c-17 -17 -17 -549 0 -566 16 -16 120 -16 136 0 8 8 12 50
12 125 l0 113 140 0 140 0 0 -120 c0 -137 -2 -134 96 -128 l49 3 0 290 0 290
-49 3 c-96 6 -96 7 -96 -113 l0 -105 -140 0 -140 0 0 98 c0 63 -4 102 -12 110
-7 7 -37 12 -68 12 -31 0 -61 -5 -68 -12z"/>
<path d="M2032 1598 c-17 -17 -17 -549 0 -566 17 -17 509 -17 526 0 20 20 15
86 -7 98 -12 6 -93 10 -195 10 l-176 0 0 55 0 55 151 0 c84 0 159 5 170 10 25
14 28 95 3 104 -9 3 -85 6 -170 6 l-154 0 0 60 0 60 176 0 c102 0 183 4 195
10 25 14 28 95 3 104 -9 3 -127 6 -263 6 -179 0 -250 -3 -259 -12z"/>
<path d="M2865 1597 c-3 -7 -4 -138 -3 -292 l3 -280 61 -3 c42 -2 64 1 72 11
8 9 13 82 14 210 l3 197 69 -195 c38 -107 76 -201 86 -210 19 -17 91 -20 119
-5 11 6 43 79 87 204 l69 196 5 -193 c3 -105 9 -198 13 -204 5 -8 31 -13 67
-13 48 0 61 4 70 19 6 12 10 118 10 276 0 158 -4 264 -10 276 -10 17 -22 19
-114 19 -85 0 -106 -3 -119 -17 -8 -10 -42 -97 -75 -193 -33 -96 -63 -168 -66
-160 -3 8 -31 89 -62 180 -30 91 -63 171 -72 178 -22 17 -221 17 -227 -1z"/>
<path d="M4865 1597 c-3 -7 -4 -138 -3 -292 l3 -280 160 -3 c275 -5 360 26
416 153 32 71 32 209 0 280 -56 126 -133 155 -407 155 -123 0 -166 -3 -169
-13z m386 -130 c38 -25 54 -71 54 -152 0 -139 -31 -168 -187 -173 l-108 -4 0
177 0 177 108 -4 c81 -3 113 -8 133 -21z"/>
<path d="M5773 1604 c-10 -4 -13 -72 -13 -290 l0 -284 24 -6 c13 -3 119 -4
237 -2 206 3 216 4 257 28 80 45 110 132 74 213 -11 25 -30 50 -41 57 l-22 11
26 30 c20 24 25 41 25 82 0 66 -25 109 -82 139 -41 22 -55 23 -258 25 -118 1
-221 0 -227 -3z m397 -124 c11 -11 20 -29 20 -40 0 -11 -9 -29 -20 -40 -18
-18 -33 -20 -140 -20 l-120 0 0 60 0 60 120 0 c107 0 122 -2 140 -20z m24
-232 c22 -31 20 -74 -4 -98 -18 -18 -33 -20 -150 -20 l-130 0 0 70 0 70 134 0
c128 0 136 -1 150 -22z"/>
<path d="M6852 1591 c-56 -19 -96 -50 -117 -91 -20 -39 -127 -458 -120 -470 9
-15 130 -13 143 3 5 6 18 38 27 70 l16 57 145 0 144 0 0 -58 c0 -32 5 -63 12
-70 7 -7 38 -12 70 -12 46 0 59 4 68 19 6 12 10 118 10 276 0 158 -4 264 -10
276 -10 18 -23 19 -173 19 -130 -1 -172 -4 -215 -19z m238 -206 l0 -105 -129
0 -130 0 20 71 c35 127 49 139 161 139 l78 0 0 -105z"/>
<path d="M7685 1600 c-86 -22 -130 -64 -140 -134 -9 -60 16 -111 72 -146 43
-27 77 -38 253 -80 96 -23 128 -46 111 -78 -14 -26 -46 -31 -161 -25 -95 5
-95 5 -132 44 -30 31 -44 39 -73 39 -55 0 -75 -15 -75 -55 0 -41 36 -87 94
-118 38 -20 55 -22 206 -22 148 0 170 2 212 22 61 28 88 71 88 138 0 105 -63
149 -280 195 -128 27 -162 43 -158 73 5 36 43 47 148 40 93 -6 94 -7 132 -45
30 -31 44 -38 76 -38 26 0 45 7 57 20 16 18 17 25 6 60 -13 45 -56 82 -120
105 -47 16 -259 20 -316 5z"/>
<path d="M8445 1597 c-3 -7 -4 -138 -3 -292 l3 -280 262 -3 c258 -2 262 -2
273 19 15 27 4 85 -16 93 -9 3 -96 6 -195 6 l-179 0 0 55 0 55 159 0 c178 0
191 4 191 64 0 53 -9 56 -187 56 l-163 0 0 60 0 60 184 0 c154 0 187 3 200 16
19 18 21 75 4 92 -18 18 -527 17 -533 -1z"/>
<path d="M330 840 c0 -7 1434 -10 4281 -10 2851 0 4278 3 4274 10 -9 14 -8555
14 -8555 0z"/>
<path d="M2410 425 c0 -98 1 -105 20 -105 17 0 20 7 20 45 l0 45 45 0 45 0 0
-45 c0 -38 3 -45 20 -45 19 0 20 7 20 105 0 98 -1 105 -20 105 -17 0 -20 -7
-20 -40 l0 -40 -45 0 -45 0 0 40 c0 33 -3 40 -20 40 -19 0 -20 -7 -20 -105z"/>
<path d="M2720 425 l0 -105 25 0 25 0 0 105 0 105 -25 0 -25 0 0 -105z"/>
<path d="M2929 501 c-24 -25 -29 -38 -29 -78 0 -74 49 -115 116 -99 26 7 54
56 54 96 0 17 -6 20 -40 20 -33 0 -40 -3 -40 -20 0 -12 7 -20 16 -20 25 0 12
-35 -16 -38 -42 -7 -66 59 -40 109 11 20 49 26 66 9 11 -11 44 -3 44 11 0 15
-44 39 -73 39 -18 0 -39 -11 -58 -29z"/>
<path d="M3200 425 c0 -98 1 -105 20 -105 17 0 20 7 20 45 l0 45 45 0 45 0 0
-45 c0 -38 3 -45 20 -45 19 0 20 7 20 105 0 98 -1 105 -20 105 -17 0 -20 -7
-20 -40 l0 -40 -45 0 -45 0 0 40 c0 33 -3 40 -20 40 -19 0 -20 -7 -20 -105z"/>
<path d="M3707 519 c-23 -13 -47 -62 -47 -94 0 -33 25 -82 48 -94 9 -5 39 -11
67 -12 39 -3 50 -1 50 11 0 8 6 32 14 54 16 47 2 107 -32 131 -24 17 -74 19
-100 4z m81 -41 c11 -14 15 -38 13 -77 -1 -18 -4 -21 -14 -13 -15 13 -42 -1
-33 -17 11 -17 -20 -13 -35 5 -7 9 -13 31 -13 49 0 18 6 40 13 49 16 19 54 21
69 4z"/>
<path d="M3980 446 c0 -79 2 -86 26 -105 33 -26 84 -27 115 -2 21 17 24 29 28
105 3 82 2 86 -18 86 -19 0 -21 -6 -21 -68 0 -81 -13 -105 -55 -100 l-30 3 -3
83 c-3 74 -5 82 -22 82 -18 0 -20 -7 -20 -84z"/>
<path d="M4303 425 c-41 -105 -41 -105 -17 -105 14 0 25 8 29 20 5 16 15 20
50 20 34 0 44 -4 48 -20 3 -12 14 -20 27 -20 13 0 20 5 18 13 -56 158 -74 197
-94 197 -17 0 -28 -18 -61 -105z m65 -23 c-28 -5 -30 0 -16 39 l11 33 12 -34
c11 -32 10 -35 -7 -38z"/>
<path d="M4580 425 l0 -105 75 0 c68 0 75 2 75 20 0 17 -7 20 -50 20 l-50 0 0
85 c0 84 0 85 -25 85 l-25 0 0 -105z"/>
<path d="M4810 510 c0 -16 7 -20 30 -20 l30 0 0 -85 c0 -78 2 -85 20 -85 18 0
20 7 20 85 l0 85 30 0 c23 0 30 4 30 20 0 18 -7 20 -80 20 -73 0 -80 -2 -80
-20z"/>
<path d="M5100 425 c0 -98 1 -105 20 -105 19 0 20 7 20 105 0 98 -1 105 -20
105 -19 0 -20 -7 -20 -105z"/>
<path d="M5268 498 c11 -18 29 -49 41 -68 11 -19 21 -52 21 -72 0 -31 4 -38
20 -38 17 0 20 7 20 43 0 30 10 58 35 100 19 32 35 60 35 63 0 2 -9 4 -20 4
-12 0 -29 -15 -45 -40 -14 -22 -27 -40 -29 -40 -3 0 -15 18 -27 40 -17 29 -29
40 -47 40 l-24 0 20 -32z"/>
<path d="M5720 425 c0 -98 1 -105 20 -105 18 0 20 7 20 58 l1 57 28 -60 28
-60 26 55 25 55 1 -52 c1 -46 4 -53 21 -53 19 0 20 7 20 105 0 95 -2 105 -18
105 -13 0 -27 -19 -46 -62 l-28 -63 -29 63 c-21 46 -33 62 -49 62 -19 0 -20
-6 -20 -105z"/>
<path d="M6079 501 c-24 -24 -29 -38 -29 -76 0 -38 5 -52 29 -76 40 -39 82
-39 122 0 24 24 29 38 29 76 0 38 -5 52 -29 76 -20 20 -39 29 -61 29 -22 0
-41 -9 -61 -29z m96 -28 c20 -19 15 -90 -7 -104 -38 -24 -78 4 -78 56 0 57 49
85 85 48z"/>
<path d="M6360 425 l0 -105 50 0 c64 0 95 15 115 55 18 39 19 52 4 94 -14 40
-54 61 -119 61 l-50 0 0 -105z m120 50 c6 -8 12 -30 12 -50 0 -45 -17 -65 -53
-65 -29 0 -29 0 -29 65 0 65 0 65 29 65 16 0 34 -7 41 -15z"/>
<path d="M6692 523 c-20 -8 -34 -51 -22 -73 5 -10 30 -26 55 -36 32 -12 45
-22 43 -33 -4 -22 -46 -26 -67 -7 -19 18 -44 7 -36 -16 7 -18 47 -38 78 -38
36 0 67 28 67 59 0 32 -21 54 -65 68 -38 12 -47 43 -13 43 13 0 29 -5 36 -12
9 -9 15 -9 25 1 27 27 -54 63 -101 44z"/>
</g>
</svg>
